REM Ripping Tool: trurip

FILE "Master of Monsters (1991)(Micro Cabin - SystemSoft)(JP).img" BINARY
  TRACK 01 AUDIO
    INDEX 01 00:00:00
  TRACK 02 MODE1/2352
    INDEX 00 00:44:65
    INDEX 01 00:47:65
  TRACK 03 AUDIO
    INDEX 00 02:55:46
    INDEX 01 02:57:46
  TRACK 04 AUDIO
    INDEX 01 06:15:34
  TRACK 05 AUDIO
    INDEX 01 09:49:13

REM DISC HASHES
REM CRC32 : e94441ef
REM MD5   : 3f0a286507366e76320ec5486023c88c
REM SHA1  : 5e410c7ec88ef96afed029cca5b79e2ce88236cc

REM Gap Append Method: Prev [crc32]
REM Trk 01: ccd25d2f
REM Trk 02: 6f9e3789
REM Trk 03: 1d2e65b6
REM Trk 04: 12c177a0
REM Trk 05: de6acbed

REM Gap Append Method: Prev [md5]
REM Trk 01: 7938d9aa88f644b60389fa8246f2052e
REM Trk 02: d70e0e25c36324e405c0337f2093658f
REM Trk 03: 336414f340ca7d7457d64cfe0a6f0df1
REM Trk 04: 7284992108ce9c4bd69a99d558e30a8b
REM Trk 05: 1a2ebdb8e307f5e0315170a7ceaf4bbe

REM Gap Append Method: Prev [sha1]
REM Trk 01: 0fc7f8840f23f43ebfb7041f71427c165f368105
REM Trk 02: c72beca46dcc1a9a4996fa4bfb8ced75fb296a37
REM Trk 03: d35e46232a64b5d6de241a244d4d40735f4acda0
REM Trk 04: 7140443a224466cecda6e6b2ff6dc06454f5bf1d
REM Trk 05: 3b6ff538c3e3b0fbacd3c7f244de9b03046510ad

REM Gap Append Method: None [crc32]
REM Trk 01: b979500c
REM Trk 02: d93881c3
REM Trk 03: 1d2e65b6
REM Trk 04: 12c177a0
REM Trk 05: de6acbed
REM Gap 02: 16e86594
REM Gap 03: 7abe247f

REM Gap Append Method: None [md5]
REM Trk 01: a25a2c129b7100092cc40e9b6e176a63
REM Trk 02: 57570d96b79621a0939f797bfa4075bb
REM Trk 03: 336414f340ca7d7457d64cfe0a6f0df1
REM Trk 04: 7284992108ce9c4bd69a99d558e30a8b
REM Trk 05: 1a2ebdb8e307f5e0315170a7ceaf4bbe
REM Gap 02: fbd314ec9876f082e173fbb5baf092aa
REM Gap 03: 9df204fbc98bb8965081cb30a89715fc

REM Gap Append Method: None [sha1]
REM Trk 01: 9ac3f1a11d434d186466917f1c7955bf7670c910
REM Trk 02: 38d457a784ea42bec53dca47f7b09651d9b9e1c1
REM Trk 03: d35e46232a64b5d6de241a244d4d40735f4acda0
REM Trk 04: 7140443a224466cecda6e6b2ff6dc06454f5bf1d
REM Trk 05: 3b6ff538c3e3b0fbacd3c7f244de9b03046510ad
REM Gap 02: 08a9af7bae10b281a8edaad6e9ea6cd1646d0ce0
REM Gap 03: cbe29e0bd725ef1194f8c47619dd42078e841de2

REM Gap Append Method: Next [crc32]
REM Trk 01: b979500c
REM Trk 02: 744fd65b
REM Trk 03: 15c4df9a
REM Trk 04: 12c177a0
REM Trk 05: de6acbed

REM Gap Append Method: Next [md5]
REM Trk 01: a25a2c129b7100092cc40e9b6e176a63
REM Trk 02: c6a1927651f39879ab3b8d629d8b2fcd
REM Trk 03: ecd55f04cf0f5d5064c0d3a544d40aed
REM Trk 04: 7284992108ce9c4bd69a99d558e30a8b
REM Trk 05: 1a2ebdb8e307f5e0315170a7ceaf4bbe

REM Gap Append Method: Next [sha1]
REM Trk 01: 9ac3f1a11d434d186466917f1c7955bf7670c910
REM Trk 02: f2edd7ae9c22817d592f18b56a1d388dba044a13
REM Trk 03: 8cee8d8545cdedb1c5cc3ae47bb029e4b5b56042
REM Trk 04: 7140443a224466cecda6e6b2ff6dc06454f5bf1d
REM Trk 05: 3b6ff538c3e3b0fbacd3c7f244de9b03046510ad

